<?xml version="1.0"?><svg id="Calque_1" xmlns="http://www.w3.org/2000/svg" viewBox="0 0 685.47 290.56"><metadata><manifest xmlns:c2pa="http://c2pa.org/manifest">AAA0RWp1bWIAAAAeanVtZGMycGEAEQAQgAAAqgA4m3EDYzJwYQAAADQfanVtYgAAAEdqdW1kYzJtYQARABCAAACqADibcQN1cm46dXVpZDpiMWIyNTJmZS04ZWNmLTQ5YjQtODg3OS01OTM4YTNiMzExZTgAAAABtGp1bWIAAAApanVtZGMyYXMAEQAQgAAAqgA4m3EDYzJwYS5hc3NlcnRpb25zAAAAANdqdW1iAAAAJmp1bWRjYm9yABEAEIAAAKoAOJtxA2MycGEuYWN0aW9ucwAAAACpY2JvcqFnYWN0aW9uc4GjZmFjdGlvbmtjMnBhLmVkaXRlZG1zb2Z0d2FyZUFnZW50bUFkb2JlIEZpcmVmbHlxZGlnaXRhbFNvdXJjZVR5cGV4U2h0dHA6Ly9jdi5pcHRjLm9yZy9uZXdzY29kZXMvZGlnaXRhbHNvdXJjZXR5cGUvY29tcG9zaXRlV2l0aFRyYWluZWRBbGdvcml0aG1pY01lZGlhAAAArGp1bWIAAAAoanVtZGNib3IAEQAQgAAAqgA4m3EDYzJwYS5oYXNoLmRhdGEAAAAAfGNib3KlamV4Y2x1c2lvbnOBomVzdGFydBi3Zmxlbmd0aBlFtGRuYW1lbmp1bWJmIG1hbmlmZXN0Y2FsZ2ZzaGEyNTZkaGFzaFggt1CuVpEbeBc4p64HPUpJ3otXPGhQbJe9bYbJFm7XR1xjcGFkSQAAAAAAAAAAAAAAAgxqdW1iAAAAJGp1bWRjMmNsABEAEIAAAKoAOJtxA2MycGEuY2xhaW0AAAAB4GNib3KoaGRjOnRpdGxlb0dlbmVyYXRlZCBJbWFnZWlkYzpmb3JtYXRtaW1hZ2Uvc3ZnK3htbGppbnN0YW5jZUlEeCx4bXA6aWlkOjIxODhiYzY4LTlkNmYtNDBiYS05OTRhLTgyZmNlZjlhYjJmNG9jbGFpbV9nZW5lcmF0b3J4N0Fkb2JlX0lsbHVzdHJhdG9yLzMwLjEgYWRvYmVfYzJwYS8wLjEyLjIgYzJwYS1ycy8wLjMyLjV0Y2xhaW1fZ2VuZXJhdG9yX2luZm+Bv2RuYW1lcUFkb2JlIElsbHVzdHJhdG9yZ3ZlcnNpb25kMzAuMf9pc2lnbmF0dXJleBlzZWxmI2p1bWJmPWMycGEuc2lnbmF0dXJlamFzc2VydGlvbnOComN1cmx4J3NlbGYjanVtYmY9YzJwYS5hc3NlcnRpb25zL2MycGEuYWN0aW9uc2RoYXNoWCBKacG9/6jeQTB4viTtzPgxOsHRZJU0VnGgDWsGszfUr6JjdXJseClzZWxmI2p1bWJmPWMycGEuYXNzZXJ0aW9ucy9jMnBhLmhhc2guZGF0YWRoYXNoWCDt9fO2DHuj4KCGDZvBzGtLsPVl4EsoDDusBfMnLeNf6WNhbGdmc2hhMjU2AAAwEGp1bWIAAAAoanVtZGMyY3MAEQAQgAAAqgA4m3EDYzJwYS5zaWduYXR1cmUAAAAv4GNib3LShFkNFKIBOCQYIYJZBqAwggacMIIEhKADAgECAhRJcyBrPnXfyWyvf1b/LSqtsEAH3TANBgkqhkiG9w0BAQsFADB1MQswCQYDVQQGEwJVUzEjMCEGA1UEChMaQWRvYmUgU3lzdGVtcyBJbmNvcnBvcmF0ZWQxHTAbBgNVBAsTFEFkb2JlIFRydXN0IFNlcnZpY2VzMSIwIAYDVQQDExlBZG9iZSBQcm9kdWN0IFNlcnZpY2VzIEc0MB4XDTI1MTAwNzE2MzkwN1oXDTI2MTAwNzE2MzkwN1owgasxEzARBgNVBAMMCkFkb2JlIEMyUEExKDAmBgNVBAsMH0NvbnRlbnQgQXV0aGVudGljaXR5IEluaXRpYXRpdmUxEzARBgNVBAoMCkFkb2JlIEluYy4xETAPBgNVBAcMCFNhbiBKb3NlMRMwEQYDVQQIDApDYWxpZm9ybmlhMQswCQYDVQQGEwJVUzEgMB4GCSqGSIb3DQEJARYRY2FpLW9wc0BhZG9iZS5jb20wggEiMA0GCSqGSIb3DQEBAQUAA4IBDwAwggEKAoIBAQDDEMGB0H09cukxc/Dmg2BiQVYM8/VpJ+2H1Nk8g0605CWGnW/iH6EzFlYWORndElG6hIGuxJJgFoR+IMwqKyL+w7G4UcoFX/+XWu/dKuOuLEA1ciWqMZ0hjJ1oxoVr/mi8XP+bj5JTPRxxjOrD69IDO5HJIaemCbwaaP5IQlwv8YgfOpT1tTLc2yLNjahjbzKPfatuQ6p4ANIznU6ogkqWgQEUV7HMy6fOlT4rawuqF6hHwUkxpHR8Zdr+CpHOGSIEWHBSEs9L2zr5MKfPT1RkyVdt0b+IUqPdQ8VQOOqHTC0WBzPbgOtSVpZ6KW0oei7KYEe6KvO+Y4bRW1I96nE5AgMBAAGjggHrMIIB5zAMBgNVHRMBAf8EAjAAMB0GA1UdDgQWBBRY9QN+0GYM4Y4OVqGXQknSuyfC/jAfBgNVHSMEGDAWgBTQrUKK8HoUByXGl8BDqCOF6LUtIzAOBgNVHQ8BAf8EBAMCB4AwKgYDVR0lBCMwIQYJKoZIhvcvAQEMBgorBgEEAYPoXgIBBggrBgEFBQcDBDCBgAYIKwYBBQUHAQEEdDByMCgGCCsGAQUFBzABhhxodHRwOi8vb2NzcC5vbmUuZGlnaWNlcnQuY29tMEYGCCsGAQUFBzAChjpodHRwOi8vY2FjZXJ0cy5vbmUuZGlnaWNlcnQuY29tL0Fkb2JlUHJvZHVjdFNlcnZpY2VzRzQuY3J0MEcGA1UdHwRAMD4wPKA6oDiGNmh0dHA6Ly9jcmwub25lLmRpZ2ljZXJ0LmNvbS9BZG9iZVByb2R1Y3RTZXJ2aWNlc0c0LmNybDCBjgYDVR0gBIGGMIGDMIGABgkqhkiG9y8BAgMwczBxBggrBgEFBQcCAjBlDGNZb3UgYXJlIG5vdCBwZXJtaXR0ZWQgdG8gdXNlIHRoaXMgTGljZW5zZSBDZXJ0aWZpY2F0ZSBleGNlcHQgYXMgcGVybWl0dGVkIGJ5IHRoZSBsaWNlbnNlIGFncmVlbWVudC4wDQYJKoZIhvcNAQELBQADggIBAJs7c8VwrVF+V6FDXrEeoTUZzzqRJGAXoQ7AiV6daRHHZVJPY2NO9OU6dahtUvF/2AUgw216awWggF82Zz5Hu34Y0Mz6FJ+y0smSoWoCVA61OJo5qSDpzS5tJVaqCx7+mI9rXmT+qsuki7hUF7cGbK05JJX4cU48qx3tw7T2wl4Mxq2TcriMcx79qdcRJReVo362iW9eDqoBDxcTVxJvrlAUGJrBQx6PqNBuQ1mneOeis4GpIl87EhDDv39acUxh/FEf+UjauxjjdimGpdwFeJ+MlDSPEUyokY2ubb/I4MvoEZW2uOf3uSh9lbZwoXPmsNJPOVwURwpQAHWJbt555NIqXNGRX46TaJvziVMWA1uL1QGdPcotLoSRksQil0DaHhK56fWnAeNaZmzFYDeH/f06hyw56Ass2+l1VEuW1/bqPvahpAd9PRDKHOvMNbjwUk3eiUmqUIEKTQbnCnc7kqkZ3I+r2EAaNMmu+nGycJdKqjplnO8mV+QmqQBrpd/3YsrrLCudTPLxoERASfIEXvqOg8zeBNYyclU8I+XUH0XLD63KpiC00yAnK+W0hyWvHirsMuW4ytv3YGeg3qdrD5t3Pkg3+ipHUoTNiuEPbiil2S1j0CyvdHcoUOB0++/+v9GTi921ieTIB1zzPGfKGdQdykAf0UOysArVG+Brix6yWQZnMIIGYzCCBEugAwIBAgIQDuG63614rm8mvVElmAeILzANBgkqhkiG9w0BAQsFADBsMQswCQYDVQQGEwJVUzEjMCEGA1UEChMaQWRvYmUgU3lzdGVtcyBJbmNvcnBvcmF0ZWQxHTAbBgNVBAsTFEFkb2JlIFRydXN0IFNlcnZpY2VzMRkwFwYDVQQDExBBZG9iZSBSb290IENBIEcyMB4XDTI0MTEyMDAwMDAwMFoXDTQ0MTExOTIzNTk1OVowdTELMAkGA1UEBhMCVVMxIzAhBgNVBAoTGkFkb2JlIFN5c3RlbXMgSW5jb3Jwb3JhdGVkMR0wGwYDVQQLExRBZG9iZSBUcnVzdCBTZXJ2aWNlczEiMCAGA1UEAxMZQWRvYmUgUHJvZHVjdCBTZXJ2aWNlcyBHNDCCAiIwDQYJKoZIhvcNAQEBBQADggIPADCCAgoCggIBAKxF+ICxWEi8zumCmeLCiU7as6RDEkgB/y6nFXeceMAQC5afyCzXeWyQJolO7Cmi4Nw5vtexdD3zVCwG7cUAn3kHrNaLNtkGS+qp7jCG3QpvASkdR+ujOpyWiOB/iBlyWR+8djFpjv3N323tR4Don9zeZ23+Gctlmd+D5KvI1zKQdWYHKtMxFJaRKXwrebOE4it4lVoPfY843ve9N7cuJlFyj2Vu3NLrr1RgEF+jdUAAEynThGKVVoUKG1abmuvmLq34LluAcRIME0TE8EuGMNvomTLAYI2c4MSXxhrJqThlWRo+MsXi+J5S/VYsm+hvd4Flwus+qF4cA+1QEDNMiidxPTMji3OXNAhsnFWNFFBt0RzTNSFsOQObDKTo90YBvEfT6JGqjwkr7hEfj87gcNVXkzoJSHEADJ4kNnJu5rgef2LvYp4dG1EpQskGMrZaq55gDcbKVm4rnY5M93lHsG4DEusf/3YihdPOdc0sDgmDDJiuQR6Glb1fK4Se0J9vomXSSW1p3ICv3TUpeKd/GRb3ChDFpMfHDv0UjfCRh9eeRBXFGCWkB6DUvSMz6uAHFpDuXiRyemRjjszJTWwx0p6HByMdtvRQhhA/JfgEcLEtUcb5MToCr+DwIO4ZaoNaktJvJOQHtG0TQbArhIg+/35UrTbVPbZg7pxmQnjTgbPvAgMBAAGjgfcwgfQwEgYDVR0TAQH/BAgwBgEB/wIBADA1BgNVHR8ELjAsMCqgKKAmhiRodHRwOi8vY3JsLmFkb2JlLmNvbS9hZG9iZXJvb3RnMi5jcmwwDgYDVR0PAQH/BAQDAgGGMFcGA1UdIARQME4wTAYJKoZIhvcvAQIDMD8wPQYIKwYBBQUHAgEWMWh0dHBzOi8vd3d3LmFkb2JlLmNvbS9taXNjL3BraS9wcm9kX3N2Y2VfY3BzLmh0bWwwHQYDVR0OBBYEFNCtQorwehQHJcaXwEOoI4XotS0jMB8GA1UdIwQYMBaAFKYc4W1UJEyoj0hyv26pjNXk7DHUMA0GCSqGSIb3DQEBCwUAA4ICAQCRlqhDU07OWLmha2+YptYEMFr3tEE9vhBLlnlN7oeKRW9S8UVEGJUNwGnw4HMy2IIeGGc6pn2h+s6ZV6xJ8CdjgMT8Zp5OtaNNe5O/qH37EETsDxN79lUDolWAnO9GT1Ln1fT25z7n+ilSPQ5EMUzKsTRslqJMVQeTOYWNYX80+eFeoT8/0s6NZLsxodw4l+pBRdyvI5g2g/vgxTYPQjdjBeqIIPBZfW5PI6WJwesJW65tXaqd1GNmkkDPlO3ZcS8qj0TONxpCfrDsjTm+OpX9k2Yvyljuz/GLssmw9hpwwOa9gSIOhVrR1hSCoWkrHQ1KWeaedPREi0AdlQ0NXClPmf7AxCZN8e4fkNovduPXyTnI43nN8PFMsUmySUxb9RtyWOH87KuJjBVkgX2PbIRvCxnQ6RrzElMbzKfw/oDRs8Psq/mm3OqVxGE8JqEH7yl3mLa7OQEk6bAMjqEoORkxudGTf0beyV72Iu5MlklIZ9L3J7XLIObmURgVhJfzmBfubLwfRGm1aaScfeyCL/38T0jKtKqYklDi1A3VbWPBSMn8sCcS7cOrbRLQtm1Y6qES+zE5Lvt/HnsVAeB1caQuxP+Fblc7a4xQb6sRmy6FmVWFbqwC1yzeXbSo9ki2+zd3OezgyfNmWgoEj3MwlbQXMNi9Vq8kA9Hf4rayLs28fqNmc2lnVHN0oWl0c3RUb2tlbnOBoWN2YWxZDlowgg5WMAMCAQAwgg5NBgkqhkiG9w0BBwKggg4+MIIOOgIBAzEPMA0GCWCGSAFlAwQCAQUAMIGCBgsqhkiG9w0BCRABBKBzBHEwbwIBAQYJYIZIAYb9bAcBMDEwDQYJYIZIAWUDBAIBBQAEIIbi1w1oZfOJ2kWQwEBKxpNIJjvZkC1jWIqaYS1DqSUdAhBSJWRKKyUnB8+hNMQaj9JoGA8yMDI2MDIwNjExMTYwMFoCCQCJgVUdIErsqqCCC9owggUeMIIDBqADAgECAhAJGQ3BLJyH2zL9CrVQve1LMA0GCSqGSIb3DQEBCwUAMGkxCzAJBgNVBAYTAlVTMRcwFQYDVQQKEw5EaWdpQ2VydCwgSW5jLjFBMD8GA1UEAxM4RGlnaUNlcnQgVHJ1c3RlZCBHNCBUaW1lU3RhbXBpbmcgUlNBNDA5NiBTSEEyNTYgMjAyNSBDQTEwHhcNMjUwNjExMDAwMDAwWhcNMzYwOTEwMjM1OTU5WjBfMQswCQYDVQQGEwJVUzEXMBUGA1UEChMORGlnaUNlcnQsIEluYy4xNzA1BgNVBAMTLkFkb2JlIFNIQTI1NiBFQ0MyNTYgVGltZXN0YW1wIFJlc3BvbmRlciAyMDI1IDEwWTATBgcqhkjOPQIBBggqhkjOPQMBBwNCAAQ6mcnV2UjvS/OI18aycCDz3iLKcO/5PIz9YsMW+WTtD24jd4o1bm7HW81d/LCte4Z0tLuYZxjhHR9hJ7FMEanyo4IBlTCCAZEwDAYDVR0TAQH/BAIwADAdBgNVHQ4EFgQUIHaho25xFY90lQ2upCykNj9YGRUwHwYDVR0jBBgwFoAU729TSunkBnx6yuKQVvYv1Ensy04wDgYDVR0PAQH/BAQDAgeAMBYGA1UdJQEB/wQMMAoGCCsGAQUFBwMIMIGVBggrBgEFBQcBAQSBiDCBhTAkBggrBgEFBQcwAYYYaHR0cDovL29jc3AuZGlnaWNlcnQuY29tMF0GCCsGAQUFBzAChlFodHRwOi8vY2FjZXJ0cy5kaWdpY2VydC5jb20vRGlnaUNlcnRUcnVzdGVkRzRUaW1lU3RhbXBpbmdSU0E0MDk2U0hBMjU2MjAyNUNBMS5jcnQwXwYDVR0fBFgwVjBUoFKgUIZOaHR0cDovL2NybDMuZGlnaWNlcnQuY29tL0RpZ2lDZXJ0VHJ1c3RlZEc0VGltZVN0YW1waW5nUlNBNDA5NlNIQTI1NjIwMjVDQTEuY3JsMCAGA1UdIAQZMBcwCAYGZ4EMAQQCMAsGCWCGSAGG/WwHATANBgkqhkiG9w0BAQsFAAOCAgEASpz+Ks655Om2nuuJjZLgL3oFXxeFme+djwiBdVPkHISv4fRDXtO/UgFO7Oun+s6OoNrYKQ6GxaRLUu23DmrCeEyvBdE5RX/CAEtK473PsDso8c1tmkjqDSHzgxDRswoX/EHWIsSRrjJM8RWB7Kd3KPja0juZtkFVpJzqjk/dqJ9UaqyiKfKrCRiwIpLU1CdBRFnj6uxJTfh0y7xzr+rWOPHVMJNezF53iJo9wi+QSOX2ee6ZrbdKAYHWO8sM+EZG0vzNaWeqUN1LlTg57Q1PKpKCxiCmKgqsxGXmScWisZPzjEuUOyrLD9OJjyvXO8SeHvf6xPFwhnCE3gc2edsH7QCVdsJ3OpKZ7JMubwI2GwqI9MgwGnKJG35k+8vQE9MLziVD30i4y8jyOSdMafeXHYvGx0aGAwCObM2ezGSmndVWr9DPh1cGamNArjTUkcWRF0yo0UzJwdG14VQqPl5nlj/2tLqk206DT2FsIMQKCa42UJbIhS2hdLxnHN8SpkpyeU62gU4VT5ZRWaqmbvw+4QFIgHQoWPeMOwNpVHqfWAocb2v7bsomgvKoMd55kjGjbnct65xikEaSMe5TlGjNmfozbq1BC8OLF9eqA6L4ZW1ZieRJIP0YBi9EiQX5mH0LNyNWA/CugYgd9bxzRHF+9RoVX8ar833EfBpGPsRSHkwwgga0MIIEnKADAgECAhANx6xXBf8hmS5AQyIMOkmGMA0GCSqGSIb3DQEBCwUAMGIxCzAJBgNVBAYTAlVTMRUwEwYDVQQKEwxEaWdpQ2VydCBJbmMxGTAXBgNVBAsTEHd3dy5kaWdpY2VydC5jb20xITAfBgNVBAMTGERpZ2lDZXJ0IFRydXN0ZWQgUm9vdCBHNDAeFw0yNTA1MDcwMDAwMDBaFw0zODAxMTQyMzU5NTlaMGkxCzAJBgNVBAYTAlVTMRcwFQYDVQQKEw5EaWdpQ2VydCwgSW5jLjFBMD8GA1UEAxM4RGlnaUNlcnQgVHJ1c3RlZCBHNCBUaW1lU3RhbXBpbmcgUlNBNDA5NiBTSEEyNTYgMjAyNSBDQTEwggIiMA0GCSqGSIb3DQEBAQUAA4ICDwAwggIKAoICAQC0eDHTCphBcr48RsAcrHXbo0ZodLRRF51NrY0NlLWZloMsVO1DahGPNRcybEKq+RuwOnPhof6pvF4uGjwjqNjfEvUi6wuim5bap+0lgloM2zX4kftn5B1IpYzTqpyFQ/4Bt0mAxAHeHYNnQxqXmRinvuNgxVBdJkf77S2uPoCj7GH8BLuxBG5AvftBdsOECS1UkxBvMgEdgkFiDNYiOTx4OtiFcMSkqTtF2hfQz3zQSku2Ws3IfDReb6e3mmdglTcaarps0wjUjsZvkgFkriK9tUKJm/s80FiocSk1VYLZlDwFt+cVFBURJg6zMUjZa/zbCclF83bRVFLeGkuAhHiGPMvSGmhgaTzVyhYn4p0+8y9oHRaQT/aofEnS5xLrfxnGpTXiUOeSLsJygoLPp66bkDX1ZlAeSpQl92QOMeRxykvq6gbylsXQskBBBnGy3tW/AMOMCZIVNSaz7BX8VtYGqLt9MmeOreGPRdtBx3yGOP+rx3rKWDEJlIqLXvJWnY0v5ydPpOjL6s36czwzsucuoKs7Yk/ehb//Wx+5kMqIMRvUBDx6z1ev+7psNOdgJMoiwOrUG2ZdSoQbU2rMkpLiQ6bGRinZbI4OLu9BMIFm1UUl9VnePs6BaaeEWvjJSjNm2qA+sdFUeEY0qVjPKOWug/G6X5uAiynM7Bu2ayBjUwIDAQABo4IBXTCCAVkwEgYDVR0TAQH/BAgwBgEB/wIBADAdBgNVHQ4EFgQU729TSunkBnx6yuKQVvYv1Ensy04wHwYDVR0jBBgwFoAU7NfjgtJxXWRM3y5nP+e6mK4cD08wDgYDVR0PAQH/BAQDAgGGMBMGA1UdJQQMMAoGCCsGAQUFBwMIMHcGCCsGAQUFBwEBBGswaTAkBggrBgEFBQcwAYYYaHR0cDovL29jc3AuZGlnaWNlcnQuY29tMEEGCCsGAQUFBzAChjVodHRwOi8vY2FjZXJ0cy5kaWdpY2VydC5jb20vRGlnaUNlcnRUcnVzdGVkUm9vdEc0LmNydDBDBgNVHR8EPDA6MDigNqA0hjJodHRwOi8vY3JsMy5kaWdpY2VydC5jb20vRGlnaUNlcnRUcnVzdGVkUm9vdEc0LmNybDAgBgNVHSAEGTAXMAgGBmeBDAEEAjALBglghkgBhv1sBwEwDQYJKoZIhvcNAQELBQADggIBABfO+xaAHP4HPRF2cTC9vgvItTSmf83Qh8WIGjB/T8ObXAZz8OjuhUxjaaFdleMM0lBryPTQM2qEJPe36zwbSI/mS83afsl3YTj+IQhQE7jU/kXjjytJgnn0hvrV6hqWGd3rLAUt6vJy9lMDPjTLxLgXf9r5nWMQwr8Myb9rEVKChHyfpzee5kH0F8HABBgr0UdqirZ7bowe9Vj2AIMD8liyrukZ2iA/wdG2th9y1IsA0QF8dTXqvcnTmpfeQh35k5zOCPmSNq1UH410ANVko43+Cdmu4y81hjajV/gxdEkMx1NKU4uHQcKfZxAvBAKqMVuqte69M9J6A47OvgRaPs+2ykgcGV00TYr2Lr3ty9qIijanrUR3anzEwlvzZiiyfTPjLbnFRsjsYg39OlV8cipDoq7+qNNjqFzeGxcytL5TTLL4ZaoBdqbhOhZ3ZRDUphPvSRmMThi0vw9vODRzW6AxnJll38F0cuJG7uEBYTptMSbhdhGQDpOXgpIUsWTjd6xpR6oaQf/DJbg3s6KCLPAlZ66RzIg9sC+NJpud/v4+7RWsWCiKi9EOLLHfMR2ZyJ/+xhCx9yHbxtl5TPau1j/1MIDpMPx0LckTetiSuEtQvLsNz3Qbp7wGWqbIiOWCnb5WqxL3/BAPvIXKUjPSxyZsq8WhbaM2tszWkPZPubdcMYIBvzCCAbsCAQEwfTBpMQswCQYDVQQGEwJVUzEXMBUGA1UEChMORGlnaUNlcnQsIEluYy4xQTA/BgNVBAMTOERpZ2lDZXJ0IFRydXN0ZWQgRzQgVGltZVN0YW1waW5nIFJTQTQwOTYgU0hBMjU2IDIwMjUgQ0ExAhAJGQ3BLJyH2zL9CrVQve1LMA0GCWCGSAFlAwQCAQUAoIHRMBoGCSqGSIb3DQEJAzENBgsqhkiG9w0BCRABBDAcBgkqhkiG9w0BCQUxDxcNMjYwMjA2MTExNjAwWjArBgsqhkiG9w0BCRACDDEcMBowGDAWBBTXh7p5KWOfuMEvSqYWUXTL4KWA8zAvBgkqhkiG9w0BCQQxIgQg/zvjMKHSjU72LA5H+lG3OFJS7/alNkgLt9OhgsDzYyIwNwYLKoZIhvcNAQkQAi8xKDAmMCQwIgQg0yOv4l/dPRbyby8lnnzkiduG0tmqsHsm9Zg3CGCJVngwCgYIKoZIzj0EAwIESDBGAiEA0Oa5kUyx1bIZwP19tO4Ox/VFfSp7uQLQrYWjGeFggSICIQCzwHNN592Rxny2wzEDRMrmXTohgA+cnBrL+2Un6WhRsGVyVmFsc6Fob2NzcFZhbHOBWQLbMIIC1woBAKCCAtAwggLMBgkrBgEFBQcwAQEEggK9MIICuTCBoqIWBBTQrUKK8HoUByXGl8BDqCOF6LUtIxgPMjAyNjAyMDIxNzI2NTlaMHcwdTBNMAkGBSsOAwIaBQAEFIrvsgEQb2tlFU3Bo7dRqYtzkssWBBTQrUKK8HoUByXGl8BDqCOF6LUtIwIUSXMgaz5138lsr39W/y0qrbBAB92AABgPMjAyNjAyMDIxNzI2NTlaoBEYDzIwMjYwMjA5MTcyNjU5WjANBgkqhkiG9w0BAQsFAAOCAgEAVeRwyUWudq5PuV3Ffn5kLgyT3mpgahKgmDuYbGw4gDguX5GiQtsjib/zoJnyzNk5/CoRbk4uDKp5zPaV7ID6DtfE+vtvuR5hN4Bt6ViyMLYDRZjAEWxm0BZg0NNT3UUcQsOOD3HTND3l99SjqOsJ90iDgzBqSrAQExzTdazBl0DFX0JRi5SqKP865xYxCMmG9omwaEzPnmX+WkUrCeK6iriaW3IQqv6C8VKXwCKo9kZkqBnSmAcznheTfY5iJIniOxhWUWcqq8HsDrIspDvkkGXf5k2pfHvGBIudsMA+sVOXaS3b6fvd1AuRBU7cz8sc3Dzg4UDR+RN0NqnQarvEwWPqjptRsPtvY/5AjI+NzMqryA4BUfqWUfSFcUMrdc0ZePy0iAUutRksZFR+T18mPDuTHIQH0jU0sW8GzL980vbSxQeUmXhZhKasfA4HARLrvzmQDdHHkRDSI+RsX4AtS87NUmr/70gnm12EWTKFaYfzK27gDbWpn7GR1lAAnk24BSmXaLLDUOxvVUA7uz7VJDhwAx+/zZxpt8nXpvp5n+NLAYoFBFcbT9KCW00QmzM2te9+77utdOICpvOVPT+LkuMCjCr/RJXdJB+kUZQ0IumyvK2puWBjQUp9R0GJISHBkMR73jNq3SbFObHLKoLsPDH0ODGQIWBgfIBdePBHtoxjcGFkWRBPAAAAAAAAAAAAAAAAAAAAAAAAAAAAAAAAAAAAAAAAAAAAAAAAAAAAAAAAAAAAAAAAAAAAAAAAAAAAAAAAAAAAAAAAAAAAAAAAAAAAAAAAAAAAAAAAAAAAAAAAAAAAAAAAAAAAAAAAAAAAAAAAAAAAAAAAAAAAAAAAAAAAAAAAAAAAAAAAAAAAAAAAAAAAAAAAAAAAAAAAAAAAAAAAAAAAAAAAAAAAAAAAAAAAAAAAAAAAAAAAAAAAAAAAAAAAAAAAAAAAAAAAAAAAAAAAAAAAAAAAAAAAAAAAAAAAAAAAAAAAAAAAAAAAAAAAAAAAAAAAAAAAAAAAAAAAAAAAAAAAAAAAAAAAAAAAAAAAAAAAAAAAAAAAAAAAAAAAAAAAAAAAAAAAAAAAAAAAAAAAAAAAAAAAAAAAAAAAAAAAAAAAAAAAAAAAAAAAAAAAAAAAAAAAAAAAAAAAAAAAAAAAAAAAAAAAAAAAAAAAAAAAAAAAAAAAAAAAAAAAAAAAAAAAAAAAAAAAAAAAAAAAAAAAAAAAAAAAAAAAAAAAAAAAAAAAAAAAAAAAAAAAAAAAAAAAAAAAAAAAAAAAAAAAAAAAAAAAAAAAAAAAAAAAAAAAAAAAAAAAAAAAAAAAAAAAAAAAAAAAAAAAAAAAAAAAAAAAAAAAAAAAAAAAAAAAAAAAAAAAAAAAAAAAAAAAAAAAAAAAAAAAAAAAAAAAAAAAAAAAAAAAAAAAAAAAAAAAAAAAAAAAAAAAAAAAAAAAAAAAAAAAAAAAAAAAAAAAAAAAAAAAAAAAAAAAAAAAAAAAAAAAAAAAAAAAAAAAAAAAAAAAAAAAAAAAAAAAAAAAAAAAAAAAAAAAAAAAAAAAAAAAAAAAAAAAAAAAAAAAAAAAAAAAAAAAAAAAAAAAAAAAAAAAAAAAAAAAAAAAAAAAAAAAAAAAAAAAAAAAAAAAAAAAAAAAAAAAAAAAAAAAAAAAAAAAAAAAAAAAAAAAAAAAAAAAAAAAAAAAAAAAAAAAAAAAAAAAAAAAAAAAAAAAAAAAAAAAAAAAAAAAAAAAAAAAAAAAAAAAAAAAAAAAAAAAAAAAAAAAAAAAAAAAAAAAAAAAAAAAAAAAAAAAAAAAAAAAAAAAAAAAAAAAAAAAAAAAAAAAAAAAAAAAAAAAAAAAAAAAAAAAAAAAAAAAAAAAAAAAAAAAAAAAAAAAAAAAAAAAAAAAAAAAAAAAAAAAAAAAAAAAAAAAAAAAAAAAAAAAAAAAAAAAAAAAAAAAAAAAAAAAAAAAAAAAAAAAAAAAAAAAAAAAAAAAAAAAAAAAAAAAAAAAAAAAAAAAAAAAAAAAAAAAAAAAAAAAAAAAAAAAAAAAAAAAAAAAAAAAAAAAAAAAAAAAAAAAAAAAAAAAAAAAAAAAAAAAAAAAAAAAAAAAAAAAAAAAAAAAAAAAAAAAAAAAAAAAAAAAAAAAAAAAAAAAAAAAAAAAAAAAAAAAAAAAAAAAAAAAAAAAAAAAAAAAAAAAAAAAAAAAAAAAAAAAAAAAAAAAAAAAAAAAAAAAAAAAAAAAAAAAAAAAAAAAAAAAAAAAAAAAAAAAAAAAAAAAAAAAAAAAAAAAAAAAAAAAAAAAAAAAAAAAAAAAAAAAAAAAAAAAAAAAAAAAAAAAAAAAAAAAAAAAAAAAAAAAAAAAAAAAAAAAAAAAAAAAAAAAAAAAAAAAAAAAAAAAAAAAAAAAAAAAAAAAAAAAAAAAAAAAAAAAAAAAAAAAAAAAAAAAAAAAAAAAAAAAAAAAAAAAAAAAAAAAAAAAAAAAAAAAAAAAAAAAAAAAAAAAAAAAAAAAAAAAAAAAAAAAAAAAAAAAAAAAAAAAAAAAAAAAAAAAAAAAAAAAAAAAAAAAAAAAAAAAAAAAAAAAAAAAAAAAAAAAAAAAAAAAAAAAAAAAAAAAAAAAAAAAAAAAAAAAAAAAAAAAAAAAAAAAAAAAAAAAAAAAAAAAAAAAAAAAAAAAAAAAAAAAAAAAAAAAAAAAAAAAAAAAAAAAAAAAAAAAAAAAAAAAAAAAAAAAAAAAAAAAAAAAAAAAAAAAAAAAAAAAAAAAAAAAAAAAAAAAAAAAAAAAAAAAAAAAAAAAAAAAAAAAAAAAAAAAAAAAAAAAAAAAAAAAAAAAAAAAAAAAAAAAAAAAAAAAAAAAAAAAAAAAAAAAAAAAAAAAAAAAAAAAAAAAAAAAAAAAAAAAAAAAAAAAAAAAAAAAAAAAAAAAAAAAAAAAAAAAAAAAAAAAAAAAAAAAAAAAAAAAAAAAAAAAAAAAAAAAAAAAAAAAAAAAAAAAAAAAAAAAAAAAAAAAAAAAAAAAAAAAAAAAAAAAAAAAAAAAAAAAAAAAAAAAAAAAAAAAAAAAAAAAAAAAAAAAAAAAAAAAAAAAAAAAAAAAAAAAAAAAAAAAAAAAAAAAAAAAAAAAAAAAAAAAAAAAAAAAAAAAAAAAAAAAAAAAAAAAAAAAAAAAAAAAAAAAAAAAAAAAAAAAAAAAAAAAAAAAAAAAAAAAAAAAAAAAAAAAAAAAAAAAAAAAAAAAAAAAAAAAAAAAAAAAAAAAAAAAAAAAAAAAAAAAAAAAAAAAAAAAAAAAAAAAAAAAAAAAAAAAAAAAAAAAAAAAAAAAAAAAAAAAAAAAAAAAAAAAAAAAAAAAAAAAAAAAAAAAAAAAAAAAAAAAAAAAAAAAAAAAAAAAAAAAAAAAAAAAAAAAAAAAAAAAAAAAAAAAAAAAAAAAAAAAAAAAAAAAAAAAAAAAAAAAAAAAAAAAAAAAAAAAAAAAAAAAAAAAAAAAAAAAAAAAAAAAAAAAAAAAAAAAAAAAAAAAAAAAAAAAAAAAAAAAAAAAAAAAAAAAAAAAAAAAAAAAAAAAAAAAAAAAAAAAAAAAAAAAAAAAAAAAAAAAAAAAAAAAAAAAAAAAAAAAAAAAAAAAAAAAAAAAAAAAAAAAAAAAAAAAAAAAAAAAAAAAAAAAAAAAAAAAAAAAAAAAAAAAAAAAAAAAAAAAAAAAAAAAAAAAAAAAAAAAAAAAAAAAAAAAAAAAAAAAAAAAAAAAAAAAAAAAAAAAAAAAAAAAAAAAAAAAAAAAAAAAAAAAAAAAAAAAAAAAAAAAAAAAAAAAAAAAAAAAAAAAAAAAAAAAAAAAAAAAAAAAAAAAAAAAAAAAAAAAAAAAAAAAAAAAAAAAAAAAAAAAAAAAAAAAAAAAAAAAAAAAAAAAAAAAAAAAAAAAAAAAAAAAAAAAAAAAAAAAAAAAAAAAAAAAAAAAAAAAAAAAAAAAAAAAAAAAAAAAAAAAAAAAAAAAAAAAAAAAAAAAAAAAAAAAAAAAAAAAAAAAAAAAAAAAAAAAAAAAAAAAAAAAAAAAAAAAAAAAAAAAAAAAAAAAAAAAAAAAAAAAAAAAAAAAAAAAAAAAAAAAAAAAAAAAAAAAAAAAAAAAAAAAAAAAAAAAAAAAAAAAAAAAAAAAAAAAAAAAAAAAAAAAAAAAAAAAAAAAAAAAAAAAAAAAAAAAAAAAAAAAAAAAAAAAAAAAAAAAAAAAAAAAAAAAAAAAAAAAAAAAAAAAAAAAAAAAAAAAAAAAAAAAAAAAAAAAAAAAAAAAAAAAAAAAAAAAAAAAAAAAAAAAAAAAAAAAAAAAAAAAAAAAAAAAAAAAAAAAAAAAAAAAAAAAAAAAAAAAAAAAAAAAAAAAAAAAAAAAAAAAAAAAAAAAAAAAAAAAAAAAAAAAAAAAAAAAAAAAAAAAAAAAAAAAAAAAAAAAAAAAAAAAAAAAAAAAAAAAAAAAAAAAAAAAAAAAAAAAAAAAAAAAAAAAAAAAAAAAAAAAAAAAAAAAAAAAAAAAAAAAAAAAAAAAAAAAAAAAAAAAAAAAAAAAAAAAAAAAAAAAAAAAAAAAAAAAAAAAAAAAAAAAAAAAAAAAAAAAAAAAAAAAAAAAAAAAAAAAAAAAAAAAAAAAAAAAAAAAAAAAAAAAAAAAAAAAAAAAAAAAAAAAAAAAAAAAAAAAAAAAAAAAAAAAAAAAAAAAAAAAAAAAAAAAAAAAAAAAAAAAAAAAAAAAAAAAAAAAAAAAAAAAAAAAAAAAAAAAAAAAAAAAAAAAAAAAAAAAAAAAAAAAAAAAAAAAAAAAAAAAAAAAAAAAAAAAAAAAAAAAAAAAAAAAAAAAAAAAAAAAAAAAAAAAAAAAAAAAAAAAAAAAAAAAAAAAAAAAAAAAAAAAAAAAAAAAAAAAAAAAAAAAAAAAAAAAAAAAAAAAAAAAAAAAAAAAAAAAAAAAAAAAAAAAAAAAAAAAAAAAAAAAAAAAAAAAAAAAAAAAAAAAAAAAAAAAAAAAAAAAAAAAAAAAAAAAAAAAAAAAAAAAAAAAAAAAAAAAAAAAAAAAAAAAAAAAAAAAAAAAAAAAAAAAAAAAAAAAAAAAAAAAAAAAAAAAAAAAAAAAAAAAAAAAAAAAAAAAAAAAAAAAAAAAAAAAAAAAAAAAAAAAAAAAAAAAAAAAAAAAAAAAAAAAAAAAAAAAAAAAAAAAAAAAAAAAAAAAAAAAAAAAAAAAAAAAAAAAAAAAAAAAAAAAAAAAAAAAAAAAAAAAAAAAAAAAAAAAAAAAAAAAAAAAAAAAAAAAAAAAAAAAAAAAAAAAAAAAAAAAAAAAAAAAAAAAAAAAAAAAAAAAAAAAAAAAAAAAAAAAAAAAAAAAAAAAAAAAAAAAAAAAAAAAAAAAAAAAAAAAAAAAAAAAAAAAAAAAAAAAAAAAAAAAAAAAAAAAAAAAAAAAAAAAAAAAAAAAAAAAAAAAAAAAAAAAAAAAAAAAAAAAAAAAAAAAAAAAAAAAAAAAAAAAAAAAAAAAAAAAAAAAAAAAAAAAAAAAAAAAAAAAAAAAAAAAAAAAAAAAAAAAAAAAAAAAAAAAAAAAAAAAAAAAAAAAAAAAAAAAAAAAAAAAAAAAAAAAAAAAAAAAAAAAAAAAAAAAAAAAAAAAAAAAAAAAAAAAAAAAAAAAAAAAAAAAAAAAAAAAAAAAAAAAAAAAAAAAAAAAAAAAAAAAAAAAAAAAAAAAAAAAAAAAAAAAAAAAAAAAAAAAAAAAAAAAAAAAAAAAAAAAAAAAAAAAAAAAAAAAAAAAAAAAAAAAAAAAAAAAAAAAAAAAAAAAAAAAAAAAAAAAAAAAAAAAAAAAAAAAAAAAAAAAAAAAAAAAAAAAAAAAAAAAAAAAAAAAAAAAAAAAAAAAAAAAAAAAAAAAAAAAAAAAAAAAAAAAAAAAAAAAAAAAAAAAAAAAAAAAAAAAAAAAAAAAAAAAAAAAAAAAAAAAAAAAAAAAAAAAAAAAAAAAAAAAAAAAAAAAAAAAAAAAAAAAAAAAAAAAAAAAAAAAAAAAAAAAAAAAAAAAAAAAAAAAAAAAAAAAAAAAAAAAAAAAAAAAAAAAAAAAAAAAAAAAAAAAAAAAAAAAAAAAAAAAAAAAAAAAAAAAAAAAAAAAAAAAAAAAAAAAAAAAAAAAAAAAAAAAAAAAAAAAAAAAAAAAAAAAAAAAAAAAAAAAAAAAAAAAAAAAAAAAAAAAAAAAAAAAAAAAAAAAAAAAAAAAAAAAAAAAAAAAAAAAAAAAAAAAAAAAAAAAAAAAAAAAAAAAAAAAAAAAAAAAAAAAAAD2WQEAX6wdJAv49ftmZhfeXoNIkFtXgfPWVKhWoIkVvTrxgThvxBNym33NEe4oUAame45AK1zlrejEDDB+WUGTrpuXMWk53F+Om/Q8xwOBzHGp3BlnUNWkiJALLL/GE+MS45vzdSK2n3uhZEVhKxG/eY+yj3a9st7tenk1UDkYspMazWBbiVdiTymGDpPefrQoNv6GLfT0rLKckvdTezal0aqx+7cDvP3z3/OrW/Kt37h7voZwHONFZ8Kl6drTgGAM7qeA438y1jHk6u6KE+YepENen5AYlKqQN1iaHzGxyDoVcYATTxL8FMYACeYcQM/0mfJTrABAchVbOGFyU/dalVzrjQ==</manifest></metadata><path d="M243.7,226.56l4.29-17.52h7v22.82h-3.65v-19.5h-.85l-4.99,19.5h-4.14l-4.87-19.5h-.85v19.5h-3.65v-22.82h7.03l4.17,17.52h.52Z"></path><path d="M278.6,231.85h-3.65v-2.59c-.08.12-.16.22-.24.3-.71.81-1.55,1.45-2.52,1.9-.97.46-2.04.68-3.19.68s-2.19-.23-3.15-.68c-.96-.46-1.82-1.08-2.55-1.89-.74-.8-1.32-1.73-1.75-2.8-.43-1.07-.64-2.21-.64-3.42s.21-2.39.64-3.45c.43-1.06,1.01-2,1.75-2.81.74-.81,1.59-1.45,2.55-1.9s2.01-.68,3.15-.68,2.22.23,3.19.68,1.81,1.09,2.52,1.9c.08.1.16.2.24.3v-2.59h3.65v17.04ZM269.8,228.75c.95,0,1.82-.22,2.6-.67.78-.45,1.4-1.08,1.86-1.9.46-.82.68-1.77.68-2.85s-.23-2.04-.68-2.84c-.46-.8-1.08-1.43-1.86-1.89-.78-.46-1.65-.68-2.6-.68s-1.78.23-2.56.68c-.77.46-1.38,1.09-1.84,1.89-.46.8-.68,1.76-.68,2.87,0,1.05.23,1.99.68,2.81s1.07,1.46,1.84,1.9c.77.45,1.62.67,2.56.67Z"></path><path d="M291.47,232.16c-1.3,0-2.48-.21-3.56-.64-1.08-.43-1.94-1.05-2.59-1.89-.65-.83-1.02-1.87-1.13-3.1h3.59c.1.99.5,1.7,1.2,2.11.7.42,1.55.62,2.54.62s1.76-.2,2.31-.59c.55-.4.82-.93.82-1.6,0-.53-.15-.92-.44-1.19-.29-.26-.68-.47-1.17-.61s-1.03-.26-1.64-.37l-1.37-.21c-.65-.1-1.29-.24-1.93-.43s-1.22-.45-1.75-.81c-.53-.35-.95-.84-1.28-1.45-.32-.61-.49-1.39-.49-2.34,0-1.03.27-1.93.82-2.69.55-.76,1.31-1.36,2.3-1.81.98-.45,2.13-.67,3.45-.67s2.49.23,3.47.7c.97.47,1.73,1.11,2.27,1.92s.84,1.72.9,2.74h-3.53c-.02-.45-.16-.86-.41-1.23-.25-.37-.61-.67-1.06-.9-.46-.22-1.02-.33-1.69-.33-.87,0-1.58.18-2.11.55-.54.37-.81.87-.81,1.52,0,.47.14.83.41,1.09.27.26.63.47,1.08.61.45.14.93.25,1.46.33l1.55.27c.73.12,1.43.28,2.1.47.67.19,1.26.47,1.78.84s.93.84,1.25,1.43c.31.59.47,1.34.47,2.25,0,1.07-.27,2.02-.82,2.83-.55.81-1.33,1.44-2.34,1.89s-2.23.67-3.65.67Z"></path><path d="M310.05,231.85c-1.5,0-2.66-.35-3.48-1.05s-1.23-1.76-1.23-3.18v-9.58h-3.62v-3.22h3.62v-5.78h3.65v5.78h6.21v3.22h-6.21v8.64c0,.69.16,1.19.47,1.51.31.31.84.47,1.57.47h3.25v3.19h-4.23Z"></path><path d="M327.52,232.16c-1.34,0-2.55-.22-3.64-.67s-2.02-1.07-2.81-1.87-1.4-1.75-1.83-2.84c-.43-1.1-.64-2.29-.64-3.59,0-1.18.22-2.29.65-3.33s1.05-1.97,1.86-2.77,1.73-1.43,2.8-1.89c1.07-.46,2.24-.68,3.51-.68,1.64,0,3.09.33,4.34,1,1.25.67,2.22,1.61,2.91,2.83.69,1.22,1.03,2.65,1.03,4.29,0,.26-.01.52-.03.78-.02.25-.04.51-.06.78h-13.17c.08.65.24,1.26.49,1.83.41.87,1,1.57,1.78,2.1s1.75.79,2.91.79,2.05-.21,2.81-.64c.76-.43,1.32-1.08,1.69-1.95h3.68c-.3,1.14-.83,2.15-1.58,3.03-.75.88-1.69,1.57-2.81,2.07s-2.42.75-3.88.75ZM332.11,221.69c-.04-.67-.22-1.28-.55-1.83-.35-.63-.87-1.13-1.57-1.51-.7-.38-1.55-.56-2.54-.56s-1.82.22-2.59.65c-.77.44-1.39,1.05-1.86,1.84-.24.43-.42.89-.52,1.4h9.61Z"></path><path d="M345.5,231.85h-3.68v-13.81h-2.71v-3.22h5.81l.3,2.55c.3-.55.7-1.03,1.19-1.46.81-.73,1.84-1.09,3.07-1.09h2.65v3.22h-2.98c-.73,0-1.37.12-1.92.37-.55.24-.97.61-1.28,1.09-.3.49-.46,1.12-.46,1.89v10.47Z"></path><path d="M364.51,214.82h3.92l4.47,12.32h.55l4.59-12.32h3.77l-6.81,17.13v7.51h-3.65v-7.54l-6.85-17.1Z"></path><path d="M393.59,232.16c-1.24,0-2.4-.23-3.5-.68-1.09-.46-2.05-1.08-2.87-1.89-.82-.8-1.47-1.74-1.93-2.81-.47-1.08-.7-2.22-.7-3.44s.23-2.36.7-3.42c.47-1.06,1.11-2,1.93-2.81s1.78-1.45,2.87-1.9c1.1-.46,2.26-.68,3.5-.68s2.4.23,3.48.68c1.08.46,2.04,1.09,2.86,1.9s1.46,1.75,1.93,2.81c.47,1.07.7,2.21.7,3.42s-.23,2.36-.7,3.44c-.47,1.07-1.11,2.01-1.93,2.81-.82.8-1.78,1.43-2.86,1.89-1.09.46-2.25.68-3.48.68ZM393.59,228.75c.93,0,1.8-.23,2.59-.69.79-.46,1.41-1.09,1.87-1.9.46-.81.68-1.75.68-2.83s-.23-2.02-.68-2.83c-.46-.81-1.08-1.44-1.87-1.9-.79-.46-1.65-.68-2.59-.68s-1.82.23-2.6.68c-.78.46-1.41,1.09-1.89,1.9-.48.81-.71,1.75-.71,2.83s.24,2.02.71,2.83c.48.81,1.11,1.45,1.89,1.9.78.46,1.65.69,2.6.69Z"></path><path d="M413.52,232.16c-1.16,0-2.15-.22-2.98-.67s-1.47-1.11-1.92-1.99c-.45-.88-.67-1.97-.67-3.27v-11.41h3.65v10.62c0,.73.14,1.33.43,1.79.28.47.65.81,1.1,1.03.45.22.93.33,1.46.33s1.08-.12,1.6-.35c.52-.23.95-.63,1.29-1.2.34-.57.52-1.35.52-2.34v-9.89h3.65v17.04h-3.65v-1.86c-.1.12-.21.24-.33.37-.55.57-1.17,1.01-1.87,1.32-.7.31-1.46.47-2.27.47Z"></path><path d="M432.84,231.85h-3.68v-13.81h-2.71v-3.22h5.81l.3,2.55c.3-.55.7-1.03,1.19-1.46.81-.73,1.84-1.09,3.07-1.09h2.65v3.22h-2.98c-.73,0-1.37.12-1.92.37-.55.24-.97.61-1.28,1.09-.3.49-.46,1.12-.46,1.89v10.47Z"></path><path d="M451.97,231.85l6.02-22.82h6.24l6.02,22.82h-3.74l-1.92-7.58h-6.94l-1.89,7.58h-3.8ZM463.78,221.08l-2.22-8.67h-.94l-2.16,8.67h5.32Z"></path><path d="M474.97,212.41v-3.38h9.74v3.38h-3.04v16.06h3.04v3.38h-9.74v-3.38h3.04v-16.06h-3.04Z"></path><path d="M517.02,231.85h-3.65v-2.59c-.08.12-.16.22-.24.3-.71.81-1.55,1.45-2.52,1.9-.97.46-2.04.68-3.19.68s-2.19-.23-3.15-.68c-.96-.46-1.82-1.08-2.55-1.89-.74-.8-1.32-1.73-1.75-2.8-.43-1.07-.64-2.21-.64-3.42s.21-2.39.64-3.45c.43-1.06,1.01-2,1.75-2.81.74-.81,1.59-1.45,2.55-1.9s2.01-.68,3.15-.68,2.22.23,3.19.68,1.81,1.09,2.52,1.9c.08.1.16.2.24.3v-8.37h3.65v22.82ZM508.23,228.75c.95,0,1.82-.22,2.6-.67.78-.45,1.4-1.08,1.86-1.9.46-.82.68-1.77.68-2.85s-.23-2.04-.68-2.84c-.46-.8-1.08-1.43-1.86-1.89-.78-.46-1.65-.68-2.6-.68s-1.78.23-2.56.68c-.77.46-1.38,1.09-1.84,1.89-.46.8-.68,1.76-.68,2.87,0,1.05.23,1.99.68,2.81s1.07,1.46,1.84,1.9c.77.45,1.62.67,2.56.67Z"></path><path d="M531.62,232.16c-1.34,0-2.55-.22-3.64-.67s-2.02-1.07-2.81-1.87-1.4-1.75-1.83-2.84c-.43-1.1-.64-2.29-.64-3.59,0-1.18.22-2.29.65-3.33s1.05-1.97,1.86-2.77,1.73-1.43,2.8-1.89c1.07-.46,2.24-.68,3.51-.68,1.64,0,3.09.33,4.34,1,1.25.67,2.22,1.61,2.91,2.83.69,1.22,1.03,2.65,1.03,4.29,0,.26-.01.52-.03.78-.02.25-.04.51-.06.78h-13.17c.08.65.24,1.26.49,1.83.41.87,1,1.57,1.78,2.1s1.75.79,2.91.79,2.05-.21,2.81-.64c.76-.43,1.32-1.08,1.69-1.95h3.68c-.3,1.14-.83,2.15-1.58,3.03-.75.88-1.69,1.57-2.81,2.07s-2.42.75-3.88.75ZM536.21,221.69c-.04-.67-.22-1.28-.55-1.83-.35-.63-.87-1.13-1.57-1.51-.7-.38-1.55-.56-2.54-.56s-1.82.22-2.59.65c-.77.44-1.39,1.05-1.86,1.84-.24.43-.42.89-.52,1.4h9.61Z"></path><path d="M551.27,232.16c-1.3,0-2.48-.21-3.56-.64-1.08-.43-1.94-1.05-2.59-1.89-.65-.83-1.02-1.87-1.13-3.1h3.59c.1.99.5,1.7,1.2,2.11.7.42,1.55.62,2.54.62s1.76-.2,2.31-.59c.55-.4.82-.93.82-1.6,0-.53-.15-.92-.44-1.19-.29-.26-.68-.47-1.17-.61s-1.03-.26-1.64-.37l-1.37-.21c-.65-.1-1.29-.24-1.93-.43s-1.22-.45-1.75-.81c-.53-.35-.95-.84-1.28-1.45-.32-.61-.49-1.39-.49-2.34,0-1.03.27-1.93.82-2.69.55-.76,1.31-1.36,2.3-1.81.98-.45,2.13-.67,3.45-.67s2.49.23,3.47.7c.97.47,1.73,1.11,2.27,1.92s.84,1.72.9,2.74h-3.53c-.02-.45-.16-.86-.41-1.23-.25-.37-.61-.67-1.06-.9-.46-.22-1.02-.33-1.69-.33-.87,0-1.58.18-2.11.55-.54.37-.81.87-.81,1.52,0,.47.14.83.41,1.09.27.26.63.47,1.08.61.45.14.93.25,1.46.33l1.55.27c.73.12,1.43.28,2.1.47.67.19,1.26.47,1.78.84s.93.84,1.25,1.43c.31.59.47,1.34.47,2.25,0,1.07-.27,2.02-.82,2.83-.55.81-1.33,1.44-2.34,1.89s-2.23.67-3.65.67Z"></path><path d="M569.86,231.85c-1.5,0-2.66-.35-3.48-1.05s-1.23-1.76-1.23-3.18v-9.58h-3.62v-3.22h3.62v-5.78h3.65v5.78h6.21v3.22h-6.21v8.64c0,.69.16,1.19.47,1.51.31.31.84.47,1.57.47h3.25v3.19h-4.23Z"></path><path d="M583.92,214.82v17.04h-3.68v-13.81h-2.71v-3.22h6.39ZM580.24,209.04h3.68v4.5h-3.68v-4.5Z"></path><path d="M594.66,231.85h-3.65v-17.04h3.65v1.95c.12-.16.25-.32.4-.49.49-.53,1.08-.95,1.78-1.28.7-.32,1.51-.49,2.42-.49,1.14,0,2.12.24,2.97.71s1.49,1.16,1.95,2.04c.46.88.69,1.94.69,3.18v11.41h-3.65v-10.37c0-1.16-.28-2.01-.85-2.57-.57-.56-1.33-.84-2.28-.84-.67,0-1.26.15-1.77.44s-.91.72-1.2,1.28c-.29.56-.44,1.21-.44,1.96v10.1Z"></path><path d="M608.83,214.82h3.92l4.47,12.32h.55l4.59-12.32h3.77l-6.81,17.13v7.51h-3.65v-7.54l-6.85-17.1Z"></path><path d="M194.64,121.29c1.04-2.68,1.62-5.6,1.62-8.64,0-13.13-10.59-23.83-23.68-24.01-.66-12.67-11.13-22.73-23.96-22.73-7.17,0-13.6,3.15-18,8.14-4.4-4.99-10.83-8.14-18-8.14-12.77,0-23.21,9.97-23.95,22.56v-29.26h-29.44v29.44h29.1c-12.93.36-23.35,10.98-23.35,24,0,3.05.58,5.96,1.62,8.64-4.73,4.39-7.7,10.65-7.7,17.6,0,13.24,10.78,24.02,24.02,24.02h26.04l9.82,9.82v23.76h23.66v-23.65l9.93-9.93h25.94c13.25,0,24.02-10.77,24.02-24.02,0-6.95-2.97-13.21-7.7-17.6ZM130.62,130.61h-12.54v-12.53h-29.41v-29.44h29.44v29.42h12.51v12.54Z"></path><path d="M333.3,131.66v-.18c2.5-1.01,4.64-2.52,6.42-4.55,1.78-2.02,3.09-4.24,3.92-6.64.83-2.41,1.41-4.67,1.74-6.78.33-2.11.49-4.2.49-6.29,0-11.65-4.12-20.97-12.35-27.95-8.23-6.98-18.95-10.48-32.14-10.48h-69.46v127.68h72.31c13.31,0,24.07-3.39,32.28-10.17,8.2-6.78,12.31-15.93,12.31-27.46,0-6.3-1.43-12.02-4.28-17.16-2.85-5.14-6.6-8.48-11.23-10.03ZM264.11,96.62h34.86c4.58,0,8.16,1.13,10.74,3.39,2.59,2.26,3.88,5.14,3.88,8.65s-1.28,6.54-3.83,8.74c-2.56,2.2-6.15,3.3-10.79,3.3h-34.86v-24.07ZM312.84,165.77c-2.47,2.23-6.11,3.34-10.92,3.34h-37.81v-24.34h37.81c4.87,0,8.53,1.09,10.97,3.25,2.44,2.17,3.66,5.13,3.66,8.87s-1.23,6.64-3.7,8.87Z"></path><path d="M433.88,151.72c0,6.42-1.49,11.44-4.46,15.07-2.97,3.63-7.52,5.44-13.64,5.44s-10.37-1.81-13.46-5.44c-3.09-3.63-4.64-8.65-4.64-15.07v-45.65h-32.1v45.65c0,16.47,3.98,28.53,11.95,36.2,7.97,7.67,20.72,11.5,38.25,11.5s29.47-3.85,37.76-11.55c8.29-7.7,12.44-19.45,12.44-35.26v-46.54h-32.1v45.65Z"></path><path d="M521.3,167.46c-2.05-1.81-3.08-4.62-3.08-8.43v-90.24h-32.18v89.52c0,7.67.81,14.03,2.45,19.08,1.63,5.05,4.24,8.96,7.8,11.73,3.57,2.76,7.68,4.68,12.35,5.75,4.66,1.07,10.48,1.6,17.43,1.6h23.9v-26.3h-18.99c-4.4,0-7.62-.9-9.67-2.72Z"></path><path d="M606.33,170.18c-4.4,0-7.62-.9-9.67-2.72-2.05-1.81-3.08-4.62-3.08-8.43v-90.24h-32.19v89.52c0,7.67.82,14.03,2.45,19.08,1.63,5.05,4.24,8.96,7.8,11.73,3.57,2.76,7.68,4.68,12.35,5.75,4.66,1.07,10.48,1.6,17.43,1.6h23.9v-26.3h-18.99Z"></path></svg>