<svg width="595" height="140" viewBox="0 0 595 140" fill="none" xmlns="http://www.w3.org/2000/svg">
<g clip-path="url(#clip0_68_1087)">
<path d="M150.84 36.4C163.4 36.4 173.56 44.0798 177.08 55.1998H170.04C166.84 46.9598 159.4 41.9996 150.84 41.9996C138.76 41.9997 129.56 51.9999 129.56 65.1998C129.56 78.3997 138.76 88.3999 150.84 88.4C159.4 88.4 166.84 83.4397 170.04 75.1998H177.08C173.56 86.3198 163.4 93.9996 150.84 93.9996C134.92 93.9996 123 81.5197 123 65.1998C123 48.8799 134.92 36.4001 150.84 36.4ZM223.495 51.6002C234.215 51.6002 240.615 57.5998 240.615 67.1998V93.1998H234.535V85.5201C231.175 90.5599 225.575 93.9996 218.295 93.9996C211.015 93.9995 204.775 90.4791 204.775 82.6393C204.776 74.3996 212.136 69.9196 223.976 69.9196C227.015 69.9196 230.535 70.2396 234.535 70.8795V66.8795C234.535 60.7996 230.375 56.5602 223.495 56.5602C216.775 56.5603 212.695 59.7596 212.295 65.6793H206.216C206.616 57.2796 212.535 51.6003 223.495 51.6002ZM194.39 93.1998H188.31V33.9996H194.39V93.1998ZM259.073 93.1998H252.993V52.4H259.073V93.1998ZM318.02 51.5992C327.379 51.5993 333.939 57.9196 333.939 66.7994V93.1998H327.859V67.4401C327.859 61.1201 323.459 56.6393 316.899 56.6393C310.419 56.6393 305.939 61.1201 305.939 67.4401V93.1998H299.859V67.4401C299.859 61.1201 295.379 56.6393 288.899 56.6393C282.419 56.6393 277.939 61.1201 277.939 67.4401V93.1998H271.859V52.4H277.939V57.5992C280.579 53.9195 285.059 51.5994 290.419 51.5992C296.659 51.5992 301.7 54.56 304.1 59.36C306.66 54.64 311.7 51.5992 318.02 51.5992ZM223.655 74.7194C214.455 74.7194 211.016 77.9199 211.016 82.2399C211.016 87.1198 214.775 89.0397 219.735 89.0397C228.055 89.0397 233.735 82.0795 234.535 75.8395C231.175 75.1995 227.255 74.7194 223.655 74.7194ZM256.033 36.4C258.353 36.4001 260.113 38.1594 260.113 40.4791C260.113 42.7991 258.353 44.5592 256.033 44.5592C253.713 44.5592 251.953 42.7991 251.953 40.4791C251.953 38.1593 253.713 36.4 256.033 36.4Z" fill="#002870"></path>
<path d="M370.36 36.4C384.76 36.4001 392.36 43.7601 393.16 54.4H379.88C379.32 50.56 376.6 47.36 370.12 47.36C364.6 47.36 361.16 49.5196 361.16 52.9596C361.16 63.6795 393.96 53.1998 393.96 76.5592C393.96 86.8792 384.92 93.9996 370.6 93.9996C355.48 93.9995 347.8 86.3192 347 75.6793H360.28C360.84 79.7593 363.72 82.9596 370.92 82.9596C377 82.9596 380.599 80.8798 380.6 77.2799C380.6 66.5599 347.8 77.0393 347.8 53.6793C347.8 43.5195 356.681 36.4 370.36 36.4ZM423.419 50.6403C437.419 50.6404 447.419 61.1998 445.419 75.9196H413.979C414.779 80.9596 418.699 84.3199 423.419 84.3199C427.659 84.3199 430.219 82.16 431.579 79.4401H444.459C441.739 88.3199 433.819 93.9996 423.419 93.9996C410.459 93.9996 401.179 84.8799 401.179 72.3199C401.179 59.6799 410.539 50.6403 423.419 50.6403ZM523.578 50.6403C534.858 50.6403 540.857 55.9997 541.978 64.7194H529.658C529.258 61.5996 526.858 59.6793 523.178 59.6793C519.498 59.6794 517.338 61.2 517.338 63.36C517.338 71.1196 542.858 62.7204 542.858 80.6403C542.858 87.68 536.378 93.9996 523.658 93.9996C511.498 93.9996 505.498 88.5596 504.378 79.9196H516.698C517.098 82.9595 519.498 84.9595 524.058 84.9596C528.698 84.9596 530.858 83.4398 530.858 81.2799C530.858 73.4399 505.258 81.5196 505.258 63.9196C505.258 56.9596 511.818 50.6403 523.578 50.6403ZM572.281 50.6393C586.281 50.6394 596.281 61.1997 594.281 75.9196H562.841C563.641 80.9596 567.561 84.3199 572.281 84.3199C576.521 84.3199 579.081 82.1599 580.441 79.4401H593.321C590.601 88.3198 582.681 93.9996 572.281 93.9996C559.321 93.9996 550.041 84.8798 550.041 72.3199C550.041 59.6799 559.401 50.6393 572.281 50.6393ZM479.494 50.6403C489.174 50.6403 495.974 57.6796 495.975 67.6793V93.1998H483.654V69.2799C483.654 64.4799 480.134 60.9596 475.254 60.9596C470.454 60.9597 466.854 64.4802 466.854 69.4401V93.1998H454.534V51.4401H466.854V56.4801C469.734 52.8001 474.134 50.6403 479.494 50.6403ZM423.419 60.3199C418.699 60.3199 415.339 63.6795 414.139 67.7594H432.699C431.659 63.7596 428.219 60.32 423.419 60.3199ZM572.281 60.3199C567.561 60.3199 564.201 63.6795 563.001 67.7594H581.562C580.522 63.7595 577.081 60.32 572.281 60.3199Z" fill="#002870"></path>
<path d="M84.9466 70.002C89.1759 70.0022 91.527 74.9085 88.8851 78.2208L41.137 138.08C37.8353 142.219 31.2161 139.125 32.2522 133.928L40.7981 91.0753H53.4749C55.8792 91.0752 57.9496 89.3734 58.4212 87.0089L61.8128 70.002H84.9466ZM65.6761 1.92001C68.9777 -2.21903 75.597 0.873858 74.5608 6.07138L61.8128 70.002H49.1351C46.731 70.0023 44.6614 71.7042 44.1897 74.0684L40.7981 91.0753H5.05401C0.824569 91.0753 -1.52741 86.1688 1.11455 82.8565L65.6761 1.92001Z" fill="#FF5539"></path>
</g>
<defs>
<clipPath id="clip0_68_1087">
<rect width="595" height="140" fill="white"></rect>
</clipPath>
</defs>
</svg>